<?xml version="1.0" standalone="no"?>
<!DOCTYPE svg PUBLIC "-//W3C//DTD SVG 20010904//EN"
 "http://www.w3.org/TR/2001/REC-SVG-20010904/DTD/svg10.dtd">
<svg version="1.0" xmlns="http://www.w3.org/2000/svg"
 width="285.000000pt" height="285.000000pt" viewBox="0 0 285.000000 285.000000"
 preserveAspectRatio="xMidYMid meet">
<metadata>
Created by potrace 1.11, written by Peter Selinger 2001-2013
</metadata>
<g transform="translate(0.000000,285.000000) scale(0.100000,-0.100000)"
fill="#000000" stroke="none">
<path d="M1289 2846 c-2 -2 -29 -7 -59 -10 -297 -35 -621 -201 -836 -428 -68
-73 -174 -210 -174 -227 0 -5 -4 -11 -8 -13 -13 -5 -98 -178 -125 -255 -29
-80 -53 -168 -63 -227 -3 -21 -8 -48 -11 -60 -12 -49 -10 -326 3 -411 83 -552
482 -1005 1019 -1158 66 -19 143 -38 170 -42 76 -11 345 -14 395 -5 25 5 65
11 89 15 121 18 310 88 444 165 291 166 531 455 636 766 59 175 76 278 76 464
0 204 -25 351 -88 515 -16 41 -109 229 -116 235 -3 3 -28 39 -56 80 -67 100
-239 271 -350 346 -245 167 -488 244 -786 250 -86 2 -158 2 -160 0z"/>
</g>
</svg>
